<?xml version="1.0" encoding="utf-8"?>
<!-- Generator: Adobe Illustrator 16.0.4, SVG Export Plug-In . SVG Version: 6.00 Build 0)  -->
<!DOCTYPE svg PUBLIC "-//W3C//DTD SVG 1.1//EN" "http://www.w3.org/Graphics/SVG/1.1/DTD/svg11.dtd">
  <svg width="450px" height="500px" xmlns="http://www.w3.org/2000/svg" xmlns:xlink="http://www.w3.org/1999/xlink" x="0px" y="0px" 
    viewBox="0 0 450 500" enable-background="new 0 0 450 500" xml:space="preserve">
    <!-- whole court rectangle -->
    <rect width="100%" height="100%" fill="#ffffff" stroke="#000" stroke-width="2" />
    
    <!-- half court line and circle -->
    <line x1="100%" y1="0" x2="100%" y2="100%" stroke="#000" stroke-width="2" />
    
    <path d="M 450 190 A 60,60 0 0,0 450 310" fill="none" stroke="#000" stroke-width="2" />
    
    
    <!-- 3-point arc (left) -->
    <line x1="0" y1="6%" x2="140" y2="6%" stroke="#000" stroke-width="2" />
    <line x1="0" y1="94%" x2="140" y2="94%" stroke="#000" stroke-width="2" />  
    <path d="M 138.97 470.2 A 237.5 237.5 0 0 0 138.97 29.79" fill="none" stroke="#000" stroke-width="2" />
    
    <!-- shaded area (left) -->
    <rect y="170" width="190" height="160" fill="#ffffff" stroke="#000" stroke-width="2" />
    
  
    
    
    
    <path id="catb" d="M 273 170 L 450 0 450 500 273 330 A 237.5,237.5 0 0,0 273 170"  style="fill:none;stroke:black;" stroke-width="2" />
    
    <path id="rscatb" d="M 273 330 L 450 500 140 500 140 470 A 237.5,237.5 0 0,0 273 330"  style="fill:none;stroke:black;" stroke-width="2" />
    <path id="lscatb" d="M 273 170 L 450 0 140 0 140 30 A 237.5,237.5 0 0,1 273 170"  style="fill:none;stroke:black;" stroke-width="2" />
    
    <path id="lslc" d="M 0 0 L 140 0 140 30 0 30 0 0" style="fill:none;stroke:black;" stroke-width="2" />
    
    <path id="rsrc" d="M 0 500 L 140 500 140 470 0 470 0 500" style="fill:none;stroke:black;" stroke-width="2" />
    
    <path id="rscmr" d="M 147 380 L 192 440 A 237.5,237.5 0 0,0 273 330 L 205 300 A 195,195 0 0,1 147 380 "  style="fill:none;stroke:black;" stroke-width="2" />
    
    <path id="lscmr" d="M 147 120 L 192 60 A 237.5,237.5 0 0,1 273 170 L 205 200 A 195,195 0 0,0 147 120 "  style="fill:none;stroke:black;" stroke-width="2" />
    
    <path id="cmr" d="M 190 330 A 162.5,162.5 0 0,0 205 300 L 273 330 A 237.5,237.5 0 0,0 273 170 L 205 200 A 162.5,162.5 0 0,0 190 170 L 190 330"  style="fill:none;stroke:black;" stroke-width="2" />
    
    <path id="rsmr" d="M 190 330 L 0 330 0 470 140 470 A 237.5,237.5 0 0,0 192 440 L 147 380 A 162.5,162.5 0 0,0 190 330"  style="fill:none;stroke:black;" stroke-width="2" />
    <path id="lsmr" d="M 190 170 L 0 170 0 30 140 30 A 237.5,237.5 0 0,1 192 60 L 147 120 A 162.5,162.5 0 0,1 190 170"  style="fill:none;stroke:black;" stroke-width="2" />
    

    
    <path id="rsitp" d="M 190 330 L 121 290 A 80,80 0 0,1 0 310.7 L 0 330 190 330" style="fill:none;stroke:black;" stroke-width="2" />
    <path id="lsitp" d="M 190 170 L 121 210 A 80,80 0 0,0 0 189.3 L 0 170 190 170"  style="fill:none;stroke:black;" stroke-width="2" />
    
    <path id="citp" d="M 0 250 L 12 250 A 40,40 0 0,1 52,210 A 40,40 0 1,1 12,250 L 0 250 0 310.7 A 80,80 0 0,0 121 290 L 190 330 190 170 121 210 A 80,80 0 0,0 0 189.3 L 0 250"  style="fill:none;stroke:black;" stroke-width="2" />
    
    <path id="cra" d="M 12 250 A 40,40 0 0,1 52,210 A 40,40 0 1,1 12,250"  style="fill:none;stroke:black;" stroke-width="2" />
    
    <!-- board and rim (left) -->
    <line x1="37" y1="220" x2="37" y2="280" stroke="#000" stroke-width="2" />
    <circle cx="52" cy="250" r="15" fill="none" stroke="#000" stroke-width="2" />    
      

    <!-- restricted area (left) -->
    <path d="M 52 290 A 40 40 0 0 0 52 210" fill="none" stroke="#000" stroke-width="2" />
    
    <!-- free throw circle (left) -->
    <path d="M 190 190 A 60 60 0 0 0 190 310" fill-rule="nonzero" fill="none" stroke="#000" stroke-width="2" stroke-dasharray="10,10" />
    <path d="M 190 310 A 60 60 0 0 0 190 190" fill-rule="nonzero" fill="none" stroke="#000" stroke-width="2" />



    <path d="M 290 430 L 290 410" fill-rule="nonzero" fill="none" stroke="#000" stroke-width="2" />
    <path d="M 320 250 L 330 250 330 260 320 260 320 270 330 270" fill-rule="nonzero" fill="none" stroke="#000" stroke-width="2" />
    <path d="M 290 70 L 300 70 300 80 290 80 M 300 80 L 300 90 290 90" fill-rule="nonzero" fill="none" stroke="#000" stroke-width="2" />
    <path d="M 50 475 L 50 485 60 485 M 60 475 L 60 495" fill-rule="nonzero" fill="none" stroke="#000" stroke-width="2" />
    <path d="M 60 5 L 50 5 50 15 60 15 60 25 50 25" fill-rule="nonzero" fill="none" stroke="#000" stroke-width="2" />
    <path d="M 210 350 L 200 350 200 370 210 370 210 360 200 360" fill-rule="nonzero" fill="none" stroke="#000" stroke-width="2" />
    <path d="M 260 240 L 270 240 270 260" fill-rule="nonzero" fill="none" stroke="#000" stroke-width="2" />
    <path d="M 200 120 L 210 120 210 140 200 140 200 120 M 200 130 L 210 130" fill-rule="nonzero" fill="none" stroke="#000" stroke-width="2" />
    
    <path d="M 60 400 L 70 400 70 380 60 380 60 390 70 390" fill-rule="nonzero" fill="none" stroke="#000" stroke-width="2" />
    <path d="M 60 70 L 60 90 M 65 70 L 65 90 75 90 75 70 65 70" fill-rule="nonzero" fill="none" stroke="#000" stroke-width="2" />
    <path d="M 120 305 L 120 325 M 125 305 L 125 325" fill-rule="nonzero" fill="none" stroke="#000" stroke-width="2" />
    <path d="M 120 175 L 120 195 M 125 175 L 135 175 135 185 125 185 125 195 135 195" fill-rule="nonzero" fill="none" stroke="#000" stroke-width="2" />
    <path d="M 150 240 L 150 260 M 155 240 L 165 240 165 250 155 250 M 165 250 L 165 260 155 260" fill-rule="nonzero" fill="none" stroke="#000" stroke-width="2" />
    <path d="M 72 240 L 72 260 M 75 240 L 75 250 85 250 M 85 240 L 85 260" fill-rule="nonzero" fill="none" stroke="#000" stroke-width="2" />
    <path d="M " fill-rule="nonzero" fill="none" stroke="#000" stroke-width="2" />
    <path d="M " fill-rule="nonzero" fill="none" stroke="#000" stroke-width="2" />


    
  </svg>
